<svg width="500" height="500" xmlns:xlink="http://www.w3.org/1999/xlink" xmlns="http://www.w3.org/2000/svg"><g><circle cx="250" cy="250" r="250" fill="#000057"></circle></g><g transform="translate(37.50000000000001,114) scale(0.85)"><g transform="scale(0.25) translate(0,-320)"><path xmlns="http://www.w3.org/2000/svg" d="M978 395L978 395 1088 359Q1092 341 1102.5 312.5 1113 284 1143 267 1173 250 1177 245.5 1181 241 1185 229L1185 229 1187 113Q1187 88 1199 74 1211 60 1225.5 63 1240 66 1246 77 1252 88 1254 106L1254 106 1259 202Q1261 226 1266.5 235 1272 244 1291.5 261 1311 278 1319 291.5 1327 305 1349 362L1349 362Q1366 336 1388.5 339 1411 342 1460 371L1460 371Q1457 316 1458 288L1458 288 1463 187Q1463 162 1467 150 1471 138 1481.5 130.5 1492 123 1505 126L1505 126Q1528 132 1530 171L1530 171 1532 209Q1533 234 1534.5 323 1536 412 1539 518.5 1542 625 1541 673L1541 673Q1539 730 1519.5 780.5 1500 831 1422 824L1422 824Q1388 822 1349 794L1349 794Q1273 891 1202 871 1131 851 1124 835L1124 835 1098 794Q1081 812 1064 824.5 1047 837 1016 837L1016 837Q948 839 920.5 781.5 893 724 898 615L898 615Q900 562 902.5 483.5 905 405 907 359L907 359Q908 302 906 256 904 210 909 185 914 160 928.5 152.5 943 145 959 156L959 156Q969 164 973 187 977 210 978 267L978 267 978 395ZM978 476L978 476 978 561 1081 534 1081 432Q1032 454 978 476ZM1082 709L1079 604 978 638Q975 671 975.5 693 976 715 987.5 733.5 999 752 1029 752.5 1059 753 1082 709L1082 709ZM1149 664L1196 539 1142 405 1149 664ZM1279 754L1225 625 1169 770Q1188 797 1218.5 797.5 1249 798 1256 786L1256 786 1279 754ZM1266 357L1266 357Q1251 301 1227 298L1227 298Q1208 296 1180 329L1180 329Q1197 396 1223 475L1223 475Q1246 409 1266 357ZM1295 440L1295 440 1255 552 1298 672Q1301 617 1301.5 586.5 1302 556 1302 548L1302 548 1295 440ZM1472 534L1472 534 1467 460Q1383 412 1352 389L1352 389 1364 512Q1414 523 1472 534ZM1366 582L1360 700Q1386 737 1410 740L1410 740Q1424 743 1442 734.5 1460 726 1470 698L1470 698Q1475 682 1474 653L1474 653 1472 606Q1422 596 1366 582L1366 582ZM898 1474L898 1474Q898 1471 916 1443L916 1443 958 1384Q986 1343 1005 1294.5 1024 1246 1025.5 1186 1027 1126 1033 1099 1039 1072 1066.5 1077 1094 1082 1101 1110.5 1108 1139 1106 1182L1106 1182 1102 1245Q1097 1285 1081.5 1328.5 1066 1372 1047.5 1401 1029 1430 999 1468 969 1506 945.5 1514 922 1522 907.5 1509.5 893 1497 898 1474ZM1268 1019L1268 1019Q1264 1082 1262 1124 1260 1166 1263 1197L1263 1197Q1264 1222 1279 1310 1294 1398 1316.5 1449.5 1339 1501 1372 1563L1372 1563 1440 1694Q1461 1733 1488 1777 1515 1821 1526.5 1841.5 1538 1862 1539 1884.5 1540 1907 1526 1917 1512 1927 1485 1910L1485 1910Q1454 1892 1402 1802 1350 1712 1308 1625 1266 1538 1253 1494L1253 1494 1230 1423Q1197 1541 1171 1609.5 1145 1678 1110.5 1736.5 1076 1795 1039.5 1848 1003 1901 978.5 1888.5 954 1876 951 1858.5 948 1841 958 1823.5 968 1806 1009.5 1740 1051 1674 1095.5 1576.5 1140 1479 1156 1384 1172 1289 1176.5 1217 1181 1145 1183 1086L1183 1086 1185 1019Q1029 1022 957.5 1030.5 886 1039 891 985L891 985Q893 960 913.5 953.5 934 947 986 942 1038 937 1120 938.5 1202 940 1355.5 936 1509 932 1530.5 946.5 1552 961 1552.5 978.5 1553 996 1533 1007.5 1513 1019 1472 1019L1472 1019 1268 1019ZM1479 1349L1479 1349Q1498 1385 1531.5 1424 1565 1463 1581 1487.5 1597 1512 1583.5 1528.5 1570 1545 1545 1542L1545 1542Q1511 1540 1451.5 1461.5 1392 1383 1371.5 1316 1351 1249 1346 1200.5 1341 1152 1346 1117L1346 1117Q1349 1091 1367 1068.5 1385 1046 1410 1070L1410 1070Q1422 1083 1422 1117L1422 1117 1420 1162Q1420 1202 1436.5 1253.5 1453 1305 1479 1349ZM617 822L617 822 617 689Q510 662 476 609 442 556 439 478.5 436 401 438 340L438 340 442 235Q442 204 451.5 190 461 176 488.5 172.5 516 169 516 218L516 218Q515 250 514 277L514 277 510 333Q507 381 511 441L511 441Q514 495 523 524 532 553 550.5 573 569 593 615 601L615 601Q615 536 614.5 429 614 322 615 268 616 214 614.5 177.5 613 141 617 123L617 123Q625 84 649.5 86 674 88 686 116L686 116Q694 136 690.5 175 687 214 690 301L690 301 690 475 690 601Q713 589 730 571 747 553 751.5 513.5 756 474 760.5 384.5 765 295 761.5 259 758 223 764.5 195 771 167 808 173L808 173Q820 176 827.5 185 835 194 836.5 227.5 838 261 837 312L837 312Q836 327 833.5 389.5 831 452 829 485 827 518 818 556.5 809 595 783.5 627 758 659 692 685L692 685 692 822Q732 850 768.5 897 805 944 823.5 1025.5 842 1107 851 1228 860 1349 864.5 1431 869 1513 869.5 1602.5 870 1692 871 1719.5 872 1747 863.5 1768 855 1789 838 1791.5 821 1794 806 1777L806 1777Q790 1760 790.5 1719 791 1678 788 1600L788 1600 782 1413Q779 1332 774.5 1250.5 770 1169 763.5 1114.5 757 1060 741.5 1012.5 726 965 718 953L718 953 690 910Q687 1157 685.5 1302.5 684 1448 686 1539L686 1539 690 1707Q691 1791 692 1826.5 693 1862 693.5 1899 694 1936 657 1935L657 1935Q615 1935 614.5 1890.5 614 1846 611 1760 608 1674 608 1591L608 1591 611 1289 613 910Q588 937 566.5 973.5 545 1010 529.5 1164.5 514 1319 510.5 1375 507 1431 505.5 1529 504 1627 504.5 1678.5 505 1730 505 1744L505 1744Q504 1773 492 1789 480 1805 463 1801.5 446 1798 438 1787L438 1787Q426 1772 427 1738.5 428 1705 426.5 1611.5 425 1518 428 1435L428 1435Q431 1356 438 1290 445 1224 462 1120.5 479 1017 497 966 515 915 537.5 884 560 853 617 822Z" fill="#fbfdfe"></path></g></g></svg>